<svg class="w-7 h-7 text-gray-500 dark:text-gray-400 mb-3" aria-hidden="true" xmlns="http://www.w3.org/2000/svg" fill="#ffffff" viewBox="1 0 45 45"><g><path d="M25.068 25.804a3.007 3.007 0 0 1-2.13.002L10 20.877V32.05a1 1 0 0 0 .644.935l13 4.95a.999.999 0 0 0 .712 0l13-4.95A1 1 0 0 0 38 32.05V20.877z" fill="#ffffff" opacity="1" data-original="#000000" class=""></path><path d="m45.356 14.065-21-8a1.007 1.007 0 0 0-.712 0l-21 8a1 1 0 0 0 0 1.87l21 8a1.004 1.004 0 0 0 .712 0l21-8a1 1 0 0 0 0-1.87z" fill="#ffffff" opacity="1" data-original="#000000" class=""></path><path d="M7 36a1 1 0 0 1-1-1V16.524a1 1 0 0 1 2 0V35a1 1 0 0 1-1 1z" fill="#ffffff" opacity="1" data-original="#000000" class=""></path><path d="M7 34a3.003 3.003 0 0 0-3 3v4a1 1 0 0 0 1 1h4a1 1 0 0 0 1-1v-4a3.003 3.003 0 0 0-3-3z" fill="#ffffff" opacity="1" data-original="#000000" class=""></path></g></svg>